<svg xmlns="http://www.w3.org/2000/svg" viewBox="0 0 24 24" fill="none" stroke="#c85050" stroke-width="2" stroke-linecap="round" stroke-linejoin="round">
  <!-- Left wing top -->
  <path d="M12 12 C8 8, 4 8, 2 10 C0 12, 0 14, 2 16 C4 18, 8 16, 12 12" fill="#8b2942" opacity="0.8"/>
  
  <!-- Left wing bottom -->
  <path d="M12 12 C10 14, 8 16, 6 18 C4 20, 2 20, 1 18 C0 16, 2 14, 12 12" fill="#c85050" opacity="0.7"/>
  
  <!-- Right wing top -->
  <path d="M12 12 C16 8, 20 8, 22 10 C24 12, 24 14, 22 16 C20 18, 16 16, 12 12" fill="#8b2942" opacity="0.8"/>
  
  <!-- Right wing bottom -->
  <path d="M12 12 C14 14, 16 16, 18 18 C20 20, 22 20, 23 18 C24 16, 22 14, 12 12" fill="#c85050" opacity="0.7"/>
  
  <!-- Body -->
  <ellipse cx="12" cy="12" rx="1" ry="4" fill="#2d0f0f"/>
  
  <!-- Antennae -->
  <path d="M11.5 8 Q10 6, 9 5" stroke="#c85050" stroke-width="1" fill="none"/>
  <path d="M12.5 8 Q14 6, 15 5" stroke="#c85050" stroke-width="1" fill="none"/>
  
  <!-- Wing details -->
  <circle cx="8" cy="10" r="1.5" fill="#f5e6d3" opacity="0.3"/>
  <circle cx="16" cy="10" r="1.5" fill="#f5e6d3" opacity="0.3"/>
  <circle cx="8" cy="15" r="1" fill="#f5e6d3" opacity="0.3"/>
  <circle cx="16" cy="15" r="1" fill="#f5e6d3" opacity="0.3"/>
</svg>
